<svg width="84" height="84" viewBox="0 0 84 84" fill="none" xmlns="http://www.w3.org/2000/svg">
<rect x="0.105469" y="0.280273" width="83.1579" height="83.1579" rx="24.9474" fill="#FDE6C2"/>
<g clip-path="url(#clip0)">
<path d="M52.1086 21.5885L53.7105 20.1299C53.7105 20.1299 57.6496 21.7211 58.9626 23.5776C60.2756 25.434 54.2357 32.8598 54.2357 32.8598L42.6812 48.507C42.6812 48.507 43.9942 52.2198 43.469 54.0763C43.0751 55.4554 37.324 62.4038 34.3829 65.878C33.4375 66.9918 31.8094 67.1244 30.7064 66.1962L25.1655 61.5286C24.0888 60.6269 23.905 59.0091 24.7453 57.8953L52.1086 21.5885Z" fill="#91686E"/>
<path d="M46.8562 17.7432L55.5222 24.1081L44.4928 40.8161L35.0391 33.9207L37.1399 33.3903L36.8773 30.4731H39.5033V27.5558L41.8668 27.821L41.6042 24.6385H43.9676L43.705 21.7213L45.2806 21.9865L44.4928 19.8648H46.8562V17.7432Z" fill="#333333"/>
</g>
<defs>
<clipPath id="clip0">
<rect width="34.9263" height="49.0632" fill="white" transform="translate(24.2207 17.7432)"/>
</clipPath>
</defs>
</svg>
