<svg width="84" height="84" viewBox="0 0 84 84" fill="none" xmlns="http://www.w3.org/2000/svg">
<rect y="0.280273" width="83.1579" height="83.1579" rx="24.9474" fill="#FDE6C2"/>
<g clip-path="url(#clip0)">
<path d="M61.5822 37.0655L61.5207 37.4109L60.9877 40.723L60.8237 41.7389L59.1017 52.3049L58.9377 53.3208L57.2773 63.4804H26.9382L25.7082 53.3208L25.5852 52.3049L24.3143 41.7389L24.1913 40.723L23.8633 38.1424V38.0815L42.9277 21.8262L61.5822 37.0655Z" fill="#FFB400"/>
<path d="M20.7891 37.2688L22.634 39.0975C22.634 39.0975 41.6984 24.4677 42.9284 22.0294C42.9284 22.0294 63.4278 39.3007 63.8378 39.0975C64.2478 38.8943 64.8628 36.456 64.8628 36.456C64.8628 36.456 45.7983 23.8582 42.7234 18.5752C42.7234 18.5752 36.3686 26.4997 20.7891 37.2688Z" fill="#FF7000"/>
<path d="M60.9878 40.7227H24.1914L24.3144 41.7386H60.8238L60.9878 40.7227Z" fill="#FFD788"/>
<path d="M25.7089 53.3206H35.2617H47.8688H58.9384L59.1024 52.3047H47.9098H35.1797H25.5859L25.7089 53.3206Z" fill="#FFD788"/>
<path d="M35.9586 63.4807L34.9336 48.6477C34.9336 48.6477 43.3383 42.9584 48.0532 48.6477L47.4382 63.4807H35.9586Z" fill="#252324"/>
</g>
<defs>
<clipPath id="clip0">
<rect width="44.0737" height="44.9053" fill="white" transform="translate(20.7891 18.5752)"/>
</clipPath>
</defs>
</svg>
