<svg width="84" height="84" viewBox="0 0 84 84" fill="none" xmlns="http://www.w3.org/2000/svg">
<rect x="0.210938" y="0.280273" width="83.1579" height="83.1579" rx="24.9474" fill="#FDE6C2"/>
<g clip-path="url(#clip0)">
<path d="M46.6848 32.6103H32.1348V28.3149C32.1348 26.6101 33.5354 25.2275 35.2623 25.2275H43.5572C45.2842 25.2275 46.6848 26.6101 46.6848 28.3149V32.6103ZM32.9507 31.8049H45.8689V28.3149C45.8689 27.0531 44.8354 26.0329 43.5572 26.0329H35.2623C33.9841 26.0329 32.9507 27.0531 32.9507 28.3149V31.8049Z" fill="#043747"/>
<path d="M20.168 59.3224H63.4101V38.6642C63.4101 34.503 59.1539 31.1338 53.8914 31.1338H29.6867C24.4242 31.1338 20.168 34.503 20.168 38.6642V59.3224Z" fill="#007CAB"/>
<path d="M44.1016 59.3224H63.4109V38.6642C63.4109 34.503 59.1547 31.1338 53.8922 31.1338H53.6203C48.3578 31.1338 44.1016 34.503 44.1016 38.6642V59.3224Z" fill="#005C82"/>
<path d="M48.9958 36.1006H48.5879V56.9064H48.9958V36.1006Z" fill="#043747"/>
<path d="M50.4919 36.1006H50.084V56.9064H50.4919V36.1006Z" fill="#043747"/>
<path d="M51.988 36.1006H51.5801V56.9064H51.988V36.1006Z" fill="#043747"/>
<path d="M53.4841 36.1006H53.0762V56.9064H53.4841V36.1006Z" fill="#043747"/>
<path d="M54.7068 36.1006H54.2988V56.9064H54.7068V36.1006Z" fill="#043747"/>
<path d="M56.2029 36.1006H55.7949V56.9064H56.2029V36.1006Z" fill="#043747"/>
<path d="M57.699 36.1006H57.291V56.9064H57.699V36.1006Z" fill="#043747"/>
<path d="M59.1951 36.1006H58.7871V56.9064H59.1951V36.1006Z" fill="#043747"/>
<path d="M60.2891 38.1878V37.7852H47.7108V38.1878H60.2891Z" fill="#043747"/>
<path d="M60.2891 39.6644V39.2617H47.7108V39.6644H60.2891Z" fill="#043747"/>
<path d="M60.2891 41.141V40.7383H47.7108V41.141H60.2891Z" fill="#043747"/>
<path d="M60.2891 42.6175V42.2148H47.7108V42.6175H60.2891Z" fill="#043747"/>
<path d="M60.2891 44.3627V43.96H47.7108V44.3627H60.2891Z" fill="#043747"/>
<path d="M60.2891 45.8392V45.4365H47.7108V45.8392H60.2891Z" fill="#043747"/>
<path d="M60.2891 47.3158V46.9131H47.7108V47.3158H60.2891Z" fill="#043747"/>
<path d="M60.2891 48.7923V48.3896H47.7108V48.7923H60.2891Z" fill="#043747"/>
<path d="M60.2891 50.5375V50.1348H47.7108V50.5375H60.2891Z" fill="#043747"/>
<path d="M60.2891 52.014V51.6113H47.7108V52.014H60.2891Z" fill="#043747"/>
<path d="M60.2891 53.4906V53.0879H47.7108V53.4906H60.2891Z" fill="#043747"/>
<path d="M60.2891 54.9671V54.5645H47.7108V54.9671H60.2891Z" fill="#043747"/>
</g>
<defs>
<clipPath id="clip0">
<rect width="43.2421" height="34.0947" fill="white" transform="translate(20.168 25.2275)"/>
</clipPath>
</defs>
</svg>
