<svg width="84" height="84" viewBox="0 0 84 84" fill="none" xmlns="http://www.w3.org/2000/svg">
<rect x="0.527344" y="0.280273" width="83.1579" height="83.1579" rx="24.9474" fill="#FDE6C2"/>
<g clip-path="url(#clip0)">
<path d="M32.5011 23.9664C32.5011 23.9664 31.3571 65.2925 31.6431 67.0025C31.9291 68.7126 62.2444 68.4276 63.1023 67.5726C63.9603 66.7175 64.2463 63.2974 64.2463 63.2974V23.9664C64.2463 23.9664 65.3903 21.1163 65.3903 20.2613C65.3903 19.4062 30.7852 19.4062 30.7852 19.4062L32.5011 23.9664Z" fill="#FFB400"/>
<path d="M64.246 37.9316H32.2148V47.0519H64.246V37.9316Z" fill="#FF7000"/>
<path d="M49.2325 51.3269C54.05 51.3269 57.9553 47.435 57.9553 42.6341C57.9553 37.8333 54.05 33.9414 49.2325 33.9414C44.4151 33.9414 40.5098 37.8333 40.5098 42.6341C40.5098 47.435 44.4151 51.3269 49.2325 51.3269Z" fill="#FF7000"/>
<path d="M49.2325 49.3319C52.9444 49.3319 55.9534 46.3332 55.9534 42.6342C55.9534 38.9352 52.9444 35.9365 49.2325 35.9365C45.5207 35.9365 42.5117 38.9352 42.5117 42.6342C42.5117 46.3332 45.5207 49.3319 49.2325 49.3319Z" fill="white"/>
<path d="M14.7695 61.5879V69.8531C14.7695 69.8531 30.2131 72.7032 35.361 69.2831V61.5879H14.7695Z" fill="#FF7000"/>
<path d="M25.0653 64.1527C30.7515 64.1527 35.361 63.0681 35.361 61.7302C35.361 60.3922 30.7515 59.3076 25.0653 59.3076C19.3791 59.3076 14.7695 60.3922 14.7695 61.7302C14.7695 63.0681 19.3791 64.1527 25.0653 64.1527Z" fill="#BFB8BA"/>
<path d="M52.0355 44.9432C52.0069 45.2853 51.8639 45.5988 51.6065 45.8838C51.4921 45.9978 51.3777 46.1118 51.2347 46.1973C51.0631 46.2828 50.8915 46.3398 50.6913 46.3398C50.4911 46.3398 50.2909 46.2828 50.0907 46.2258C49.9191 46.1688 49.7761 46.1118 49.6045 46.0833C49.5473 46.0548 49.4901 46.0548 49.4615 46.0548C49.2041 46.0548 48.9467 46.0263 48.6893 46.0833C48.5178 46.1118 48.3462 46.1688 48.1746 46.2258C47.9458 46.3113 47.717 46.3683 47.4596 46.3398C47.2308 46.3113 47.0592 46.2258 46.8876 46.0833C46.6016 45.8553 46.4014 45.5703 46.287 45.2283C46.2012 44.9432 46.2012 44.6867 46.287 44.4017C46.3728 44.1167 46.5158 43.8602 46.7446 43.6607C46.859 43.5467 47.002 43.4612 47.1164 43.3757C47.288 43.2617 47.431 43.0907 47.5454 42.9482C47.7742 42.6917 47.9744 42.3782 48.2318 42.1502C48.4034 41.9792 48.6321 41.8367 48.8609 41.8082C49.2041 41.7512 49.5187 41.7797 49.8333 41.9792C50.0049 42.0932 50.1479 42.2357 50.2909 42.3782C50.4625 42.5777 50.6055 42.7772 50.7485 42.9767C50.9201 43.1762 51.0917 43.3472 51.3205 43.4897C51.6351 43.6892 51.8353 43.9742 51.9783 44.3162C52.0355 44.4872 52.0641 44.7152 52.0355 44.9432Z" fill="#FF7000"/>
<path d="M52.8072 41.4664C52.8072 41.9224 52.6928 42.2644 52.464 42.5779C52.321 42.7774 52.1494 42.8914 51.892 42.9199C51.749 42.9199 51.606 42.8629 51.5202 42.7774C51.3486 42.6349 51.2628 42.4354 51.2056 42.2074C51.177 42.0649 51.1484 41.9224 51.1484 41.7799C51.1484 41.4379 51.2342 41.0958 51.4344 40.8108C51.5488 40.6398 51.6918 40.4973 51.892 40.4403C52.0922 40.3833 52.2638 40.4403 52.4068 40.5543C52.5784 40.6968 52.6642 40.8678 52.7214 41.0958C52.7786 41.2384 52.8072 41.4094 52.8072 41.4664Z" fill="#FF7000"/>
<path d="M50.9194 40.7534C50.8622 40.9814 50.7478 41.1809 50.5476 41.3234C50.3474 41.4659 50.0614 41.4944 49.8326 41.3234C49.6324 41.1809 49.518 40.9529 49.4608 40.7249C49.4036 40.5539 49.375 40.3829 49.375 40.2119C49.375 39.9269 49.4322 39.6703 49.5466 39.4138C49.661 39.2143 49.804 39.0433 50.0328 38.9863H50.0614C50.09 38.9863 50.1186 38.9863 50.1758 38.9863C50.4046 38.9863 50.5476 39.1003 50.6906 39.2428C50.8622 39.4708 50.948 39.7273 50.9766 39.9839C51.0338 40.2404 50.9766 40.4969 50.9194 40.7534Z" fill="#FF7000"/>
<path d="M47.1446 41.8934C47.1446 42.0644 47.0874 42.3209 46.9444 42.5774C46.83 42.7769 46.6584 42.9194 46.401 42.9194C46.2294 42.9194 46.0864 42.8624 45.9434 42.7199C45.7432 42.5204 45.6002 42.2639 45.543 42.0074C45.4858 41.8079 45.4572 41.5799 45.4858 41.3804C45.5144 41.0954 45.6002 40.8104 45.829 40.5824C46.0292 40.3829 46.3152 40.3544 46.544 40.5254C46.7728 40.6679 46.9158 40.8959 47.0016 41.1239C47.116 41.3519 47.1446 41.5799 47.1446 41.8934Z" fill="#FF7000"/>
<path d="M48.9175 40.1835C48.9175 40.4685 48.8603 40.725 48.7459 40.953C48.6601 41.124 48.5457 41.2665 48.3741 41.352C48.1167 41.4945 47.8593 41.409 47.6591 41.2095C47.5161 41.067 47.4303 40.896 47.3731 40.6965C47.2873 40.44 47.2873 40.1835 47.3159 39.927C47.3445 39.699 47.4017 39.4995 47.5447 39.3C47.6591 39.129 47.8021 38.9865 48.0023 38.958C48.1453 38.9295 48.2883 38.958 48.4313 39.0435C48.6315 39.186 48.7745 39.3855 48.8317 39.6135C48.9175 39.813 48.9461 40.0125 48.9175 40.1835Z" fill="#FF7000"/>
<path d="M26.6675 68.3702C26.6389 68.5697 26.5817 68.7122 26.4387 68.8548C26.3815 68.9118 26.3243 68.9688 26.2385 69.0258C26.1527 69.0828 26.0669 69.1113 25.9525 69.1113C25.8381 69.1113 25.7523 69.0828 25.6379 69.0543C25.5521 69.0258 25.4663 68.9973 25.3805 68.9688C25.3519 68.9688 25.3233 68.9688 25.2947 68.9403C25.1517 68.9403 25.0374 68.9118 24.8944 68.9403C24.8086 68.9688 24.7228 68.9973 24.6084 69.0258C24.494 69.0543 24.351 69.0828 24.2366 69.0828C24.1222 69.0828 24.0078 69.0258 23.922 68.9403C23.779 68.8263 23.6646 68.6837 23.6074 68.4842C23.5788 68.3417 23.5788 68.1992 23.6074 68.0567C23.636 67.9142 23.7218 67.7717 23.8362 67.6577C23.8934 67.6007 23.9792 67.5437 24.0364 67.5152C24.1222 67.4582 24.208 67.3727 24.2652 67.2872C24.3796 67.1447 24.494 66.9737 24.6084 66.8597C24.6942 66.7742 24.8086 66.6887 24.9516 66.6887C25.1231 66.6602 25.2947 66.6602 25.4663 66.7742C25.5521 66.8312 25.6379 66.9167 25.6951 67.0022C25.7809 67.1162 25.8667 67.2017 25.9525 67.3157C26.0383 67.4297 26.1241 67.5152 26.2671 67.6007C26.4387 67.7147 26.5531 67.8572 26.6103 68.0282C26.6675 68.1137 26.6675 68.2277 26.6675 68.3702Z" fill="white"/>
<path d="M27.0663 66.5177C27.0663 66.7457 27.0091 66.9452 26.8947 67.1162C26.8089 67.2017 26.7231 67.2872 26.5801 67.2872C26.4943 67.2872 26.4371 67.2587 26.3799 67.2017C26.2941 67.1162 26.2369 67.0307 26.2083 66.8882C26.2083 66.8027 26.1797 66.7457 26.1797 66.6602C26.1797 66.4892 26.2369 66.2897 26.3227 66.1472C26.3799 66.0617 26.4657 65.9762 26.5801 65.9477C26.6945 65.9192 26.7803 65.9477 26.8661 66.0047C26.9519 66.0902 27.0091 66.1757 27.0377 66.2897C27.0377 66.4037 27.0663 66.4892 27.0663 66.5177Z" fill="white"/>
<path d="M26.0664 66.1476C26.0378 66.2616 25.9806 66.3756 25.8662 66.4611C25.7518 66.5466 25.6088 66.5466 25.4944 66.4611C25.38 66.3756 25.3228 66.2616 25.2942 66.1476C25.2656 66.0621 25.2656 65.948 25.2656 65.8625C25.2656 65.72 25.2942 65.5775 25.3514 65.435C25.4086 65.321 25.4944 65.2355 25.6088 65.207C25.6088 65.207 25.6088 65.207 25.6374 65.207C25.666 65.207 25.666 65.207 25.6946 65.207C25.809 65.207 25.8948 65.264 25.952 65.3495C26.0378 65.4635 26.095 65.606 26.095 65.7485C26.1236 65.8625 26.095 66.005 26.0664 66.1476Z" fill="white"/>
<path d="M24.0643 66.7463C24.0643 66.8318 24.0357 66.9743 23.9499 67.0883C23.8927 67.2023 23.8069 67.2593 23.6639 67.2593C23.5781 67.2593 23.4923 67.2308 23.4351 67.1738C23.3207 67.0598 23.2635 66.9458 23.2063 66.8033C23.1777 66.6893 23.1777 66.5753 23.1777 66.4613C23.2063 66.2903 23.2349 66.1478 23.3493 66.0338C23.4637 65.9198 23.6067 65.9198 23.7211 66.0053C23.8355 66.0908 23.9213 66.2048 23.9499 66.3188C24.0357 66.4613 24.0643 66.5753 24.0643 66.7463Z" fill="white"/>
<path d="M25.0072 65.8339C25.0072 65.9764 24.9786 66.1189 24.9214 66.2329C24.8642 66.3184 24.807 66.4039 24.7212 66.4609C24.5783 66.5179 24.4353 66.4894 24.3495 66.3754C24.2637 66.2899 24.2351 66.2044 24.2065 66.0904C24.1779 65.9479 24.1493 65.8054 24.1779 65.6914C24.2065 65.5774 24.2351 65.4634 24.2923 65.3494C24.3495 65.2639 24.4353 65.1784 24.5497 65.1499C24.6354 65.1214 24.6926 65.1499 24.7784 65.2069C24.8928 65.2924 24.95 65.3779 25.0072 65.5204C25.0072 65.6344 25.0072 65.7484 25.0072 65.8339Z" fill="white"/>
<path d="M11.3379 53.6074V61.8727C11.3379 61.8727 26.7815 64.7227 31.9294 61.3026V53.6074H11.3379Z" fill="#FF7000"/>
<path d="M21.6336 56.1723C27.3198 56.1723 31.9294 55.0877 31.9294 53.7497C31.9294 52.4118 27.3198 51.3271 21.6336 51.3271C15.9475 51.3271 11.3379 52.4118 11.3379 53.7497C11.3379 55.0877 15.9475 56.1723 21.6336 56.1723Z" fill="#BFB8BA"/>
<path d="M23.2359 60.3898C23.2073 60.5893 23.1501 60.7318 23.0071 60.8743C22.9499 60.9313 22.8927 60.9883 22.8069 61.0453C22.7211 61.1023 22.6353 61.1308 22.5209 61.1308C22.4065 61.1308 22.3207 61.1023 22.2063 61.0738C22.1205 61.0453 22.0347 61.0168 21.9489 60.9883C21.9203 60.9883 21.8917 60.9883 21.8631 60.9598C21.7201 60.9598 21.6057 60.9313 21.4627 60.9598C21.3769 60.9883 21.2911 61.0168 21.1767 61.0453C21.0623 61.0738 20.9193 61.1023 20.8049 61.1023C20.6905 61.1023 20.5761 61.0453 20.4903 60.9598C20.3473 60.8458 20.2329 60.7033 20.1757 60.5038C20.1471 60.3613 20.1471 60.2188 20.1757 60.0763C20.2043 59.9337 20.2901 59.7912 20.4045 59.6772C20.4617 59.6202 20.5475 59.5632 20.6047 59.5347C20.6905 59.4777 20.7763 59.3922 20.8335 59.3067C20.9479 59.1642 21.0623 58.9932 21.1767 58.8792C21.2625 58.7937 21.3769 58.7082 21.5199 58.7082C21.6915 58.6797 21.8631 58.6797 22.0347 58.7937C22.1205 58.8507 22.2063 58.9362 22.2635 59.0217C22.3493 59.1357 22.4351 59.2212 22.5209 59.3352C22.6067 59.4492 22.6925 59.5347 22.8355 59.6202C23.0071 59.7342 23.1215 59.8767 23.1787 60.0478C23.2359 60.1333 23.2359 60.2473 23.2359 60.3898Z" fill="white"/>
<path d="M23.6346 58.5373C23.6346 58.7653 23.5774 58.9648 23.463 59.1358C23.3772 59.2213 23.2914 59.3068 23.1484 59.3068C23.0626 59.3068 23.0054 59.2783 22.9482 59.2213C22.8624 59.1358 22.8052 59.0503 22.7766 58.9078C22.7766 58.8223 22.748 58.7653 22.748 58.6798C22.748 58.5088 22.8052 58.3092 22.891 58.1667C22.9482 58.0812 23.034 57.9957 23.1484 57.9672C23.2628 57.9387 23.3486 57.9672 23.4344 58.0242C23.5202 58.1097 23.5774 58.1952 23.606 58.3092C23.606 58.4232 23.6346 58.5088 23.6346 58.5373Z" fill="white"/>
<path d="M22.6348 58.1671C22.6062 58.2811 22.549 58.3951 22.4346 58.4806C22.3202 58.5661 22.1772 58.5661 22.0628 58.4806C21.9484 58.3951 21.8912 58.2811 21.8626 58.1671C21.834 58.0816 21.834 57.9676 21.834 57.8821C21.834 57.7396 21.8626 57.5971 21.9198 57.4546C21.977 57.3406 22.0628 57.2551 22.1772 57.2266C22.1772 57.2266 22.1772 57.2266 22.2058 57.2266C22.2344 57.2266 22.2344 57.2266 22.263 57.2266C22.3774 57.2266 22.4632 57.2836 22.5204 57.3691C22.6062 57.4831 22.6634 57.6256 22.6634 57.7681C22.692 57.8821 22.6634 58.0246 22.6348 58.1671Z" fill="white"/>
<path d="M20.6327 58.7658C20.6327 58.8513 20.6041 58.9938 20.5183 59.1078C20.4611 59.2218 20.3753 59.2788 20.2323 59.2788C20.1465 59.2788 20.0607 59.2504 20.0035 59.1933C19.8891 59.0793 19.8319 58.9653 19.7747 58.8228C19.7461 58.7088 19.7461 58.5948 19.7461 58.4808C19.7747 58.3098 19.8033 58.1673 19.9177 58.0533C20.0321 57.9393 20.1751 57.9393 20.2895 58.0248C20.4039 58.1103 20.4897 58.2243 20.5183 58.3383C20.6041 58.4808 20.6327 58.5948 20.6327 58.7658Z" fill="white"/>
<path d="M21.5756 57.8534C21.5756 57.9959 21.547 58.1384 21.4898 58.2524C21.4326 58.3379 21.3754 58.4234 21.2896 58.4804C21.1466 58.5374 21.0036 58.5089 20.9178 58.3949C20.832 58.3094 20.8034 58.2239 20.7748 58.1099C20.7462 57.9674 20.7176 57.8249 20.7462 57.7109C20.7748 57.5969 20.8034 57.4829 20.8606 57.3689C20.9178 57.2834 21.0036 57.1979 21.118 57.1694C21.2038 57.1409 21.261 57.1694 21.3468 57.2264C21.4612 57.3119 21.5184 57.3974 21.5756 57.5399C21.5756 57.6539 21.5756 57.7679 21.5756 57.8534Z" fill="white"/>
</g>
<defs>
<clipPath id="clip0">
<rect width="54.0526" height="51.5579" fill="white" transform="translate(11.3379 19.4062)"/>
</clipPath>
</defs>
</svg>
