<svg width="84" height="84" viewBox="0 0 84 84" fill="none" xmlns="http://www.w3.org/2000/svg">
<rect x="0.630859" y="0.280273" width="83.1579" height="83.1579" rx="24.9474" fill="#FDE6C2"/>
<path d="M24.5098 23.5645V31.5232L27.9697 30.0584L24.5098 23.5645Z" fill="#FF9193"/>
<path d="M23.9656 36.4551C23.9656 36.4551 19.5666 37.3828 19.7643 38.5546C19.962 39.7753 19.27 40.5565 21.7908 40.0683C24.3116 39.58 26.8324 39.9218 26.8324 39.9218L23.9656 36.4551Z" fill="#4D4155"/>
<path d="M26.437 29.9604C26.437 29.9604 22.0379 32.9877 22.4333 34.599C22.8288 36.2103 23.4713 40.3605 26.9312 41.2882C30.3911 42.2159 31.6268 42.8019 31.6268 42.8019C31.6268 42.8019 28.0186 42.8995 27.8209 44.3155C27.6232 45.7315 26.5852 45.8291 28.76 45.8291C30.9348 45.8291 40.1283 44.8526 47.7401 48.7099C55.3519 52.5672 59.652 55.2527 61.9257 57.2545C64.1993 59.3053 64.9902 60.2818 66.4236 60.6236C67.8569 60.9165 68.8949 60.0377 68.2524 58.817C67.6098 57.5963 66.4236 52.5184 66.4236 50.2235C66.4236 47.8798 66.4236 47.3916 66.4236 47.3916C66.4236 47.3916 68.9938 49.8329 70.4272 52.9578C71.8605 56.0827 72.3548 60.6724 73.4916 61.9907C74.6285 63.3091 75.3204 64.9203 76.1607 63.602C77.001 62.2837 76.0619 59.4517 76.1607 57.9381C76.2596 56.4245 73.1951 47.1963 65.1879 41.5324C65.1879 41.5324 61.728 32.6947 44.0825 30.7417C44.0825 30.7417 43.687 27.4215 43.687 26.982C43.687 26.5426 38.8432 28.2027 38.1512 28.8863C37.4098 29.6187 33.1096 27.4703 30.9843 27.6656C30.9843 27.6656 26.6841 23.4177 24.5093 23.613L26.437 29.9604Z" fill="#C3BAC5"/>
<path d="M38.7441 31.5232C38.7441 31.5232 41.1166 28.8865 42.1546 28.3982C43.1926 27.91 43.588 31.9626 43.588 31.9626L38.7441 31.5232Z" fill="#FF9193"/>
<path d="M28.6621 32.7929C29.017 32.7929 29.3046 32.5087 29.3046 32.1582C29.3046 31.8076 29.017 31.5234 28.6621 31.5234C28.3072 31.5234 28.0195 31.8076 28.0195 32.1582C28.0195 32.5087 28.3072 32.7929 28.6621 32.7929Z" fill="#4A3E53"/>
<path d="M34.1972 34.5019C34.5521 34.5019 34.8398 34.2177 34.8398 33.8672C34.8398 33.5166 34.5521 33.2324 34.1972 33.2324C33.8424 33.2324 33.5547 33.5166 33.5547 33.8672C33.5547 34.2177 33.8424 34.5019 34.1972 34.5019Z" fill="#4A3E53"/>
<path d="M32.2694 36.6992C30.9348 36.6015 30.3417 35.9179 30.0451 35.4785C29.798 35.6738 29.5509 35.7714 29.2543 35.7714C28.4635 35.8203 27.8209 35.2344 27.7715 35.2344L28.1175 34.8437C28.1175 34.8437 28.6612 35.332 29.2049 35.2832C29.452 35.2832 29.6991 35.1367 29.8969 34.8926L30.1934 34.5508L30.3417 34.9902C30.3417 35.039 30.7371 36.1621 32.2694 36.2109V36.6992Z" fill="#4A3E53"/>
<path d="M34.7197 65.975C24.6366 65.975 16.4316 54.0613 16.4316 39.3644C16.4316 24.6676 24.6366 12.7539 34.7197 12.7539C44.8028 12.7539 53.0078 24.6676 53.0078 39.3644C53.0078 54.0613 44.8028 65.975 34.7197 65.975ZM34.7197 14.2187C25.4768 14.2187 17.9145 25.4977 17.9145 39.3644C17.9145 53.2312 25.4768 64.5102 34.7197 64.5102C43.9626 64.5102 51.5249 53.2312 51.5249 39.3644C51.5249 25.4977 43.9626 14.2187 34.7197 14.2187Z" fill="#FF7000"/>
</svg>
