<svg width="84" height="84" viewBox="0 0 84 84" fill="none" xmlns="http://www.w3.org/2000/svg">
<rect x="0.736328" y="0.280273" width="83.1579" height="83.1579" rx="24.9474" fill="#FDE6C2"/>
<path d="M56.0437 49.4723C56.0437 49.4723 56.0437 56.0383 56.3757 56.7309C56.7077 57.4235 57.7592 63.9895 59.1427 64.3496C60.5262 64.6821 61.9096 65.3747 61.9096 66.0673C61.9096 66.7599 58.1189 67.0924 58.1189 67.0924L50.8418 54.3206C50.8418 54.3206 51.5335 48.4473 51.8656 48.4473C52.2253 48.4473 56.0437 49.4723 56.0437 49.4723Z" fill="#698195"/>
<path d="M31.1688 52.9352C31.1688 52.9352 30.145 57.0908 27.7101 58.4761V62.9642C27.7101 62.9642 27.7101 64.3494 29.4256 64.6819C31.1412 65.0143 32.1926 65.7069 32.1926 66.0671C32.1926 66.3995 28.0422 67.0922 28.0422 67.0922L22.8956 60.5539C22.8956 60.5539 23.2277 59.5288 22.8956 58.8362C22.5636 58.1436 22.8956 54.6805 22.8956 54.6805L25.6626 49.1396L31.1688 52.9352Z" fill="#698195"/>
<path d="M21.1246 41.1891C21.1246 41.1891 20.1008 42.9068 20.4328 44.292C20.7649 45.6772 21.1246 48.4477 21.1246 49.4727C21.1246 50.4978 21.1246 53.9609 19.7411 56.0387L19.409 65.3751C19.409 65.3751 20.4328 67.0928 21.1246 67.0928C21.8163 67.0928 23.5318 67.0928 23.5318 67.0928C23.5318 67.0928 23.8638 65.7076 23.1998 65.3751C22.508 65.0426 22.176 62.2722 22.508 61.5796C22.8401 60.887 29.4254 56.3988 30.1172 52.9358C30.1172 52.9358 40.4656 55.0136 43.9243 52.9358L44.616 66.4279C44.616 66.4279 48.7665 67.4529 48.7665 66.7603C48.7665 66.0677 46.3592 64.6825 46.6913 63.6574C47.0233 62.6324 46.6913 58.4767 49.4582 56.7313C52.2252 55.0136 53.9407 54.321 55.3242 53.6284C56.7076 52.9358 58.7829 50.5255 59.1149 49.4727C59.4469 48.4477 61.5221 44.9846 62.9056 44.9846C64.2891 44.9846 64.9808 45.6772 66.3643 45.6772C67.7478 45.6772 69.4633 44.9846 69.4633 44.6521C69.4633 44.3197 70.4871 43.6271 70.1551 43.2669C69.823 42.9345 69.1313 43.2669 69.1313 42.2419C69.1313 41.2168 69.823 40.5242 68.7992 39.4714C67.7755 38.4463 65.7003 36.3685 65.0085 36.0083C64.3168 35.6482 62.9333 33.2379 62.9333 33.2379C62.9333 33.2379 61.2178 35.6482 61.2178 37.0334C61.2178 38.4186 57.427 40.1363 56.7353 40.1363C56.0436 40.1363 48.7941 40.4688 46.3869 39.8039C43.9796 39.139 29.4531 38.0862 28.0973 38.0862C26.7415 38.0862 23.6148 36.701 22.9231 34.2907C22.2313 31.8804 21.2076 27.7247 21.2076 27.0321C21.2076 26.3395 19.8241 22.8764 19.8241 22.1838C19.8241 21.4912 18.3576 16.2828 14.8989 16.9754C14.8989 16.9754 14.5669 17.3078 16.2824 20.0783C17.9979 22.8487 17.3062 28.7221 17.3062 28.7221C17.3062 28.7221 18.3299 34.263 20.0731 37.3659C21.8163 40.4688 21.1246 41.1891 21.1246 41.1891Z" fill="#8191A2"/>
<path d="M33.4923 44.7355C33.4923 44.7355 32.5516 47.8661 33.4923 48.5033C34.4331 49.1405 36.3146 50.6919 38.5005 50.3872C40.6864 50.0824 43.2044 49.4452 44.4495 48.808C45.6946 48.1708 46.9674 46.6194 46.9674 45.9822C46.9674 45.345 47.2718 43.461 45.3903 43.1563C43.5087 42.8515 41.3228 42.8515 39.7457 43.1563C38.1962 43.461 33.8244 43.7935 33.4923 44.7355Z" fill="#993E2A"/>
<path d="M35.6797 45.0396L37.8656 45.9816C37.8656 45.9816 38.8064 45.6768 39.7471 45.3444C40.6879 45.0396 40.6879 44.0977 40.6879 44.0977C40.6879 44.0977 42.5694 45.0396 42.8738 45.0396C43.1781 45.0396 44.451 46.6188 44.451 46.6188C44.451 46.6188 42.2651 48.1979 41.6287 48.1979C40.9922 48.1979 40.9923 47.5607 40.9923 47.5607L37.8656 46.9235L35.6797 47.5607L35.9841 46.6188L35.6797 45.0396Z" fill="#F8635B"/>
</svg>
